<?xml version="1.0" encoding="UTF-8" standalone="no"?>
<svg width="363px" height="363px" viewBox="0 0 363 363" version="1.1" xmlns="http://www.w3.org/2000/svg" xmlns:xlink="http://www.w3.org/1999/xlink">
    <!-- Generator: Sketch 39.1 (31720) - http://www.bohemiancoding.com/sketch -->
    <title>Group 2</title>
    <desc>Created with Sketch.</desc>
    <defs>
        <polygon id="path-1" points="16.7282 18.4618233 16.7282 0.00526511628 0.270472 0.00526511628 0.270472 18.4618233 16.7282 18.4618233"></polygon>
        <polygon id="path-3" points="0 81.0465116 145.1282 81.0465116 145.1282 0.0646511628 0 0.0646511628"></polygon>
    </defs>
    <g id="Page-1" stroke="none" stroke-width="1" fill="none" fill-rule="evenodd">
        <g id="Group-2">
            <rect id="Rectangle" fill="#F3F3E1" x="0" y="0" width="363" height="363"></rect>
            <g id="Group" transform="translate(109.000000, 140.000000)">
                <g id="Page-1">
                    <polygon id="Fill-1" fill="#221F20" points="38.409336 0.952902326 38.409336 5.37169302 43.756216 5.37169302 43.756216 19.4094605 48.844376 19.4094605 48.844376 5.37169302 54.163816 5.37169302 54.163816 0.952902326"></polygon>
                    <polygon id="Fill-2" fill="#221F20" points="76.17834 0.952902326 76.17834 7.76471628 69.97102 7.76471628 69.97102 0.952902326 64.88286 0.952902326 64.88286 19.4094605 69.97102 19.4094605 69.97102 12.183507 76.17834 12.183507 76.17834 19.4094605 81.26454 19.4094605 81.26454 0.952902326"></polygon>
                    <polygon id="Fill-3" fill="#221F20" points="93.313836 0.952902326 93.313836 19.4094605 106.514436 19.4094605 106.514436 14.9906698 98.398076 14.9906698 98.398076 12.0780186 105.126756 12.0780186 105.126756 7.97178605 98.398076 7.97178605 98.398076 5.37169302 106.275316 5.37169302 106.275316 0.952902326"></polygon>
                    <g id="Group-22" transform="translate(0.000000, 0.888056)">
                        <path d="M12.468344,37.2924744 C11.945024,36.9799163 11.407984,36.7044744 10.851344,36.4602884 C10.382904,36.2532186 9.855664,36.0578698 9.273544,35.8761953 C8.689464,35.6925674 8.121064,35.602707 7.564424,35.602707 C7.113624,35.602707 6.751024,35.6710791 6.482504,35.8097767 C6.213984,35.9504279 6.078744,36.182893 6.078744,36.5130326 C6.078744,36.7572186 6.157144,36.9545209 6.311984,37.1108 C6.468784,37.2651256 6.696144,37.4096837 6.990144,37.538614 C7.286104,37.6694977 7.646744,37.7964744 8.072064,37.9156372 C8.499344,38.0367535 8.981504,38.1852186 9.520504,38.3571256 C10.373104,38.6169395 11.141424,38.9041023 11.829384,39.2166605 C12.515384,39.5292186 13.103384,39.8964744 13.589464,40.3223349 C14.075544,40.7462419 14.451864,41.2619628 14.712544,41.8675442 C14.971264,42.4750791 15.102584,43.2115442 15.102584,44.0769395 C15.102584,45.1865209 14.896784,46.1202884 14.489104,46.8743349 C14.081424,47.6264279 13.542424,48.2300558 12.872104,48.6793581 C12.203744,49.130614 11.447184,49.4568465 10.602424,49.6541488 C9.759624,49.8534047 8.912904,49.9530326 8.060304,49.9530326 C7.382144,49.9530326 6.686344,49.9022419 5.972904,49.798707 C5.259464,49.6932186 4.551904,49.546707 3.848264,49.3552651 C3.142664,49.1638233 2.464504,48.9391721 1.811824,48.6793581 C1.159144,48.4195442 0.557424,48.1245674 0.000784,47.7963814 L2.192064,43.3502419 C2.799664,43.7311721 3.434704,44.0691256 4.097184,44.3641023 C4.653824,44.6239163 5.281024,44.8563814 5.984664,45.0654047 C6.692224,45.2744279 7.409584,45.3779628 8.138704,45.3779628 C8.693384,45.3779628 9.079504,45.3037302 9.299024,45.1572186 C9.516584,45.0087535 9.626344,44.8153581 9.626344,44.5711721 C9.626344,44.3113581 9.516584,44.090614 9.299024,43.9089395 C9.079504,43.7272651 8.781584,43.5690326 8.399384,43.4283814 C8.017184,43.2896837 7.578144,43.150986 7.082264,43.0122884 C6.586384,42.8716372 6.059144,42.7094977 5.502504,42.5180558 C4.685184,42.2406605 3.983504,41.9437302 3.391584,41.6214047 C2.799664,41.3010326 2.311624,40.9357302 1.929424,40.5294047 C1.549184,40.1230791 1.264984,39.6581488 1.082704,39.1385209 C0.900424,38.6169395 0.810264,38.0191721 0.810264,37.3452186 C0.810264,36.3215907 0.994504,35.4210326 1.368864,34.6415907 C1.741264,33.8601953 2.252824,33.2116372 2.893744,32.6920093 C3.538584,32.1704279 4.273584,31.7777767 5.098744,31.5081953 C5.925864,31.238614 6.800024,31.1057767 7.721224,31.1057767 C8.399384,31.1057767 9.059904,31.1702419 9.702784,31.3011256 C10.347624,31.4300558 10.968944,31.5941488 11.568704,31.7934047 C12.168464,31.9926605 12.729024,32.2094977 13.250384,32.4439163 C13.771744,32.6783349 14.240184,32.8990791 14.659624,33.1081023 L12.468344,37.2924744 L12.468344,37.2924744 Z" id="Fill-4" fill="#221F20"></path>
                        <path d="M33.025216,36.535107 L31.302376,42.7237581 L34.667696,42.7237581 L33.025216,36.535107 Z M24.052336,49.7172465 L30.963296,31.2587349 L35.087136,31.2587349 L41.972616,49.7172465 L36.598296,49.7172465 L35.477176,46.103293 L30.545816,46.103293 L29.450176,49.7172465 L24.052336,49.7172465 Z" id="Fill-6" fill="#221F20"></path>
                        <path d="M50.496852,40.3342512 C50.496852,39.2090419 50.696772,38.0994605 51.098572,37.0074605 C51.500372,35.913507 52.086412,34.9348093 52.858652,34.069414 C53.634812,33.2040186 54.571692,32.5007628 55.675172,31.9635535 C56.780612,31.4243907 58.036972,31.1567628 59.444252,31.1567628 C61.098492,31.1567628 62.541052,31.5259721 63.775852,32.2624372 C65.008692,32.9989023 65.922052,33.973693 66.513972,35.1887628 L62.625332,37.9431814 C62.470492,37.4919256 62.266652,37.1188093 62.013812,36.8238326 C61.760972,36.5288558 61.486572,36.2963907 61.192572,36.1225302 C60.896612,35.9506233 60.583012,35.8275535 60.251772,35.7572279 C59.924452,35.6888558 59.618692,35.6556465 59.340372,35.6556465 C58.697492,35.6556465 58.144772,35.7982512 57.686132,36.0834605 C57.223572,36.3706233 56.839412,36.7437395 56.537572,37.2008558 C56.233772,37.6599256 56.010332,38.181507 55.871172,38.761693 C55.732012,39.3418791 55.663412,39.9181581 55.663412,40.4905302 C55.663412,41.1312744 55.745732,41.7466233 55.912332,42.3365767 C56.076972,42.9245767 56.320012,43.4461581 56.641452,43.8954605 C56.962892,44.3467163 57.354892,44.7061581 57.813532,44.9757395 C58.276092,45.2433674 58.803332,45.3781581 59.393292,45.3781581 C59.687292,45.3781581 59.993052,45.3390884 60.306652,45.2609488 C60.618292,45.1808558 60.920132,45.0519256 61.204332,44.8702512 C61.492452,44.6885767 61.753132,44.4541581 61.988332,44.1689488 C62.223532,43.881786 62.409732,43.5301581 62.548892,43.1160186 L66.696252,45.5852279 C66.435572,46.2611349 66.039652,46.8667163 65.510452,47.4078326 C64.981252,47.9430884 64.375612,48.3943442 63.695492,48.757693 C63.019292,49.1210419 62.296052,49.3984372 61.533612,49.5879256 C60.767252,49.7813209 60.018532,49.8750884 59.287452,49.8750884 C58.001692,49.8750884 56.819812,49.6016 55.743772,49.0565767 C54.663812,48.5096 53.736732,47.7868093 52.962532,46.8862512 C52.188332,45.985693 51.586612,44.9620651 51.149532,43.8173209 C50.714412,42.6745302 50.496852,41.5141581 50.496852,40.3342512" id="Fill-8" fill="#221F20"></path>
                        <path d="M82.553632,39.6321674 L85.766072,39.6321674 C86.075752,39.6321674 86.365832,39.4602605 86.634352,39.110586 C86.906792,38.7648186 87.040072,38.2803535 87.040072,37.6571907 C87.040072,37.0164465 86.883272,36.5261209 86.573592,36.186214 C86.259992,35.850214 85.944432,35.6802605 85.630832,35.6802605 L82.553632,35.6802605 L82.553632,39.6321674 Z M77.469392,49.7180279 L77.469392,31.2595163 L85.971872,31.2595163 C86.875432,31.2595163 87.710392,31.4470512 88.474792,31.8201674 C89.241152,32.1932837 89.895792,32.6777488 90.446552,33.2755163 C90.991432,33.8732837 91.422632,34.5570047 91.734272,35.330586 C92.047872,36.1002605 92.208592,36.8757953 92.208592,37.6571907 C92.208592,38.7316093 91.971432,39.7317953 91.499072,40.6577488 C91.032592,41.5856558 90.377952,42.3436093 89.542992,42.9335628 L93.719752,49.7180279 L87.982832,49.7180279 L84.456792,44.0509581 L82.553632,44.0509581 L82.553632,49.7180279 L77.469392,49.7180279 Z" id="Fill-10" fill="#221F20"></path>
                        <polygon id="Fill-12" fill="#221F20" points="117.427716 45.2990419 117.427716 49.7178326 104.229076 49.7178326 104.229076 31.2612744 117.194476 31.2612744 117.194476 35.6800651 109.315276 35.6800651 109.315276 38.2801581 116.045916 38.2801581 116.045916 42.3883442 109.315276 42.3883442 109.315276 45.2990419"></polygon>
                        <g id="Group-16" transform="translate(128.400000, 31.255814)">
                            <mask id="mask-2" fill="white">
                                <use xlink:href="#path-1"></use>
                            </mask>
                            <g id="Clip-15"></g>
                            <path d="M11.563992,9.20814884 C11.563992,8.49903256 11.467952,7.84852093 11.277832,7.26052093 C11.085752,6.66861395 10.809392,6.16656744 10.458552,5.75047442 C10.101832,5.3343814 9.660832,5.01010233 9.141432,4.77568372 C8.620072,4.54126512 8.034032,4.42405581 7.391152,4.42405581 L5.358632,4.42405581 L5.358632,14.0430326 L7.391152,14.0430326 C8.053632,14.0430326 8.643592,13.9219163 9.166912,13.6816372 C9.688272,13.4374512 10.125352,13.0994977 10.484032,12.6658233 C10.840752,12.2321488 11.109272,11.7222884 11.291552,11.1323349 C11.471872,10.5443349 11.563992,9.90163721 11.563992,9.20814884 L11.563992,9.20814884 Z M0.270472,18.4618233 L0.270472,0.00526511628 L7.391152,0.00526511628 C8.917992,0.00526511628 10.270392,0.247497674 11.434632,0.731962791 C12.600832,1.2183814 13.572992,1.87670698 14.355032,2.70889302 C15.139032,3.54107907 15.728992,4.51586977 16.130792,5.63326512 C16.528672,6.75261395 16.728592,7.94424186 16.728592,9.20814884 C16.728592,10.612707 16.509072,11.8824744 16.066112,13.0174512 C15.621192,14.1524279 14.990072,15.1233116 14.174712,15.9281488 C13.355432,16.732986 12.375432,17.3581023 11.226872,17.8015442 C10.078312,18.2410791 8.800392,18.4618233 7.391152,18.4618233 L0.270472,18.4618233 Z" id="Fill-14" fill="#221F20" mask="url(#mask-2)"></path>
                        </g>
                        <polygon id="Fill-17" fill="#221F20" points="39.935 80.9168 39.935 62.4582884 52.6358 62.4582884 52.6358 66.8790326 45.0212 66.8790326 45.0212 69.9440558 51.23048 69.9440558 51.23048 74.0541953 45.0212 74.0541953 45.0212 80.9168"></polygon>
                        <mask id="mask-4" fill="white">
                            <use xlink:href="#path-3"></use>
                        </mask>
                        <g id="Clip-20"></g>
                        <polygon id="Fill-19" fill="#221F20" mask="url(#mask-4)" points="70.52864 80.9156279 75.6168 80.9156279 75.6168 62.4571163 70.52864 62.4571163"></polygon>
                        <path d="M102.314352,79.4079256 C101.146192,80.4999256 99.799672,81.0469023 98.270872,81.0469023 C97.124272,81.0469023 96.036472,80.7909953 95.009432,80.2791814 C93.984352,79.7693209 93.084712,79.0797395 92.308552,78.2123907 C91.534352,77.3450419 90.922832,76.3389953 90.470072,75.1825302 C90.019272,74.0338791 89.791912,72.8149023 89.791912,71.5314605 C89.791912,70.2304372 90.023192,69.0231814 90.485752,67.9038326 C90.944392,66.7864372 91.579432,65.8155535 92.388912,64.9931349 C93.200352,64.1707163 94.148992,63.5202047 95.244632,63.0435535 C96.338312,62.5649488 97.514312,62.3285767 98.764792,62.3285767 C99.546832,62.3285767 100.297512,62.4184372 101.008992,62.6001116 C101.720472,62.781786 102.382952,63.0513674 102.992512,63.4069023 C103.600112,63.7624372 104.144992,64.1863442 104.623232,64.6805767 C105.097552,65.1748093 105.495432,65.733507 105.809032,66.3586233 L102.028192,69.2419721 C101.712632,68.5152744 101.238312,67.9311814 100.603272,67.4877395 C99.972152,67.0462512 99.297912,66.825507 98.586432,66.825507 C98.061152,66.825507 97.578992,66.9466233 97.134072,67.1888558 C96.691112,67.4310884 96.308912,67.7690419 95.985512,68.2046698 C95.664072,68.6363907 95.413192,69.1521116 95.228952,69.7498791 C95.048632,70.3476465 94.956512,71.0020651 94.956512,71.7131349 C94.956512,72.441786 95.048632,73.1001116 95.228952,73.6900651 C95.413192,74.2780651 95.667992,74.7840186 96.001192,75.2098791 C96.330472,75.633786 96.728352,75.9639256 97.188952,76.1963907 C97.647592,76.4308093 98.157192,76.5480186 98.715792,76.5480186 C99.339072,76.5480186 99.944712,76.393693 100.526832,76.0791814 C101.108952,75.7685767 101.651872,75.3173209 102.157552,74.7273674 L98.896112,74.7273674 L98.896112,71.0899721 L106.514632,71.0899721 L106.514632,80.9160186 L102.314352,80.9160186 L102.314352,79.4079256 Z" id="Fill-21" fill="#221F20" mask="url(#mask-4)"></path>
                    </g>
                </g>
            </g>
        </g>
    </g>
</svg>