<?xml version="1.0" encoding="UTF-8" standalone="no"?>
<svg width="100px" height="100px" viewBox="0 0 100 100" version="1.1" xmlns="http://www.w3.org/2000/svg" xmlns:xlink="http://www.w3.org/1999/xlink">
    <!-- Generator: Sketch 39.1 (31720) - http://www.bohemiancoding.com/sketch -->
    <title>Artboard</title>
    <desc>Created with Sketch.</desc>
    <defs></defs>
    <g id="Page-1" stroke="none" stroke-width="1" fill="none" fill-rule="evenodd">
        <g id="Artboard" fill="#000000">
            <path d="M53.662,56.5972 C53.05,56.8512 52.563,57.3372 52.309,57.9502 C52.055,58.5632 52.055,59.2512 52.309,59.8642 L63.269,86.3202 L58.65,88.2332 L47.69,61.7762 C47.292,60.8132 46.361,60.2322 45.379,60.2322 C45.061,60.2322 44.736,60.2942 44.423,60.4232 L30,66.3982 L30,12.5352 L68.087,50.6222 L53.662,56.5972 Z M74.952,51.9872 C75.115,51.1692 74.858,50.3222 74.267,49.7322 L29.267,4.7322 C28.553,4.0182 27.48,3.8032 26.542,4.1902 C25.609,4.5772 25,5.4892 25,6.5002 L25,70.1402 C25,70.9752 25.417,71.7552 26.111,72.2192 C26.805,72.6832 27.687,72.7702 28.457,72.4492 L44.028,66.0002 L54.987,92.4572 C55.385,93.4202 56.316,94.0012 57.298,94.0012 C57.616,94.0012 57.941,93.9392 58.254,93.8102 L67.492,89.9842 C68.104,89.7302 68.591,89.2442 68.845,88.6312 C69.099,88.0182 69.099,87.3302 68.845,86.7172 L57.886,60.2592 L73.457,53.8102 C74.229,53.4902 74.789,52.8072 74.952,51.9872 L74.952,51.9872 Z" id="arrow"></path>
        </g>
    </g>
</svg>