<?xml version="1.0" encoding="UTF-8" standalone="no"?>
<svg width="215px" height="47px" viewBox="0 0 215 47" version="1.1" xmlns="http://www.w3.org/2000/svg" xmlns:xlink="http://www.w3.org/1999/xlink">
    <!-- Generator: Sketch 39.1 (31720) - http://www.bohemiancoding.com/sketch -->
    <title>ORA →</title>
    <desc>Created with Sketch.</desc>
    <defs></defs>
    <g id="UI" stroke="none" stroke-width="1" fill="none" fill-rule="evenodd">
        <g id="screen_lg-copy-8" transform="translate(-446.000000, -1198.000000)" fill="#27262B">
            <g id="portfolio" transform="translate(-20.000000, 851.000000)">
                <path d="M490.464004,347.367993 C476.672002,347.367993 466.944,357.223994 466.944,370.599996 C466.944,383.975999 476.672002,393.832 490.464004,393.832 C504.256007,393.832 514.016008,383.975999 514.016008,370.599996 C514.016008,357.223994 504.256007,347.367993 490.464004,347.367993 L490.464004,347.367993 Z M490.464004,355.943994 C498.720006,355.943994 504.672007,361.895995 504.672007,370.599996 C504.672007,379.303998 498.720006,385.255999 490.464004,385.255999 C482.240003,385.255999 476.256002,379.303998 476.256002,370.599996 C476.256002,361.895995 482.240003,355.943994 490.464004,355.943994 L490.464004,355.943994 Z M522.048001,348.199993 L522.048001,393 L530.976002,393 L530.976002,375.175997 L533.600003,375.175997 L546.656005,393 L557.472007,393 L543.680004,375.047997 C552.288006,374.215997 557.408007,369.191996 557.408007,361.831995 C557.408007,353.255993 551.680006,348.199993 540.992004,348.199993 L522.048001,348.199993 Z M540.832004,356.423994 C545.568005,356.423994 548.224005,358.119994 548.224005,361.831995 C548.224005,365.607996 545.696005,367.399996 540.832004,367.399996 L530.976002,367.399996 L530.976002,356.423994 L540.832004,356.423994 Z M589.152005,348.199993 L578.272003,348.199993 L560.832,393 L570.144002,393 L574.048002,382.567998 L593.152005,382.567998 L597.056006,393 L606.592008,393 L589.152005,348.199993 Z M583.616004,357.031994 L590.080005,374.343997 L577.120003,374.343997 L583.616004,357.031994 Z M627.712001,368.167996 L627.712001,375.463997 L658.752006,375.463997 C661.568006,375.463997 664.032007,375.463997 667.840007,375.207997 C664.800007,377.671997 662.144007,380.263998 659.392006,382.951998 L654.688005,387.623999 L659.840006,392.776 L680.76801,371.815997 L659.840006,350.887993 L654.688005,356.039994 L659.392006,360.679995 C662.144007,363.399995 664.800007,365.959996 667.840007,368.455996 C664.032007,368.167996 661.568006,368.167996 658.752006,368.167996 L627.712001,368.167996 Z" id="ORA-→"></path>
            </g>
        </g>
    </g>
</svg>